<?xml version="1.0" encoding="iso-8859-1"?>
<svg xmlns="http://www.w3.org/2000/svg" xmlns:xlink="http://www.w3.org/1999/xlink" version="1.1" viewBox="0 0 13.92 13.92" enable-background="new 0 0 13.92 13.92" width="512px" height="512px">
  <g>
    <g>
      <path fill="#8499b2" d="m11.681,5.039l-.639,.346c0.446,0.749 0.703,1.613 0.703,2.536h0.735c1.77636e-15-1.05-0.293-2.031-0.799-2.882z"/>
    </g>
  </g>
  <g>
    <g>
      <path fill="#8499b2" d="m13.608,4.189c-1.907-0.521-4.243-0.829-6.768-0.829-2.411,0-4.651,0.28-6.51,0.759-0.212,0.896-0.33,1.85-0.33,2.841 0,1.276 0.19,2.492 0.534,3.6h5.068l1.358-2.88 1.358,2.88h5.068c0.344-1.108 0.534-2.324 0.534-3.6 0-0.965-0.11-1.895-0.312-2.771zm-.648,5.651h-4.207l-1.793-3.847-1.815,3.847h-3.945c-0.32-0.961-0.48-1.774-0.48-2.88 0-0.859 0.042-1.383 0.24-2.16 1.73-0.415 3.755-0.72 6-0.72 2.351,0 4.224,0.268 6,0.72 0.188,0.759 0.24,1.324 0.24,2.16-1.77636e-15,1.106 0.08,1.919-0.24,2.88z"/>
    </g>
  </g>
</svg>
